<svg width="55" height="55" viewBox="0 0 55 55" fill="none" xmlns="http://www.w3.org/2000/svg">
    <circle cx="27.5" cy="27.5" r="27.5" fill="#A4A4A4"/>
    <path d="M8.98295 39V15.7273H17.7102C19.4981 15.7273 20.9981 16.0606 22.2102 16.7273C23.4299 17.3939 24.3504 18.3106 24.9716 19.4773C25.6004 20.6364 25.9148 21.9545 25.9148 23.4318C25.9148 24.9242 25.6004 26.25 24.9716 27.4091C24.3428 28.5682 23.4148 29.4811 22.1875 30.1477C20.9602 30.8068 19.4489 31.1364 17.6534 31.1364H11.8693V27.6705H17.0852C18.1307 27.6705 18.9867 27.4886 19.6534 27.125C20.3201 26.7614 20.8125 26.2614 21.1307 25.625C21.4564 24.9886 21.6193 24.2576 21.6193 23.4318C21.6193 22.6061 21.4564 21.8788 21.1307 21.25C20.8125 20.6212 20.3163 20.1326 19.642 19.7841C18.9754 19.428 18.1155 19.25 17.0625 19.25H13.1989V39H8.98295ZM29.5767 39V15.7273H38.4858C40.1676 15.7273 41.5653 15.9924 42.679 16.5227C43.8002 17.0455 44.6373 17.7614 45.1903 18.6705C45.7509 19.5795 46.0312 20.6098 46.0312 21.7614C46.0312 22.7083 45.8494 23.5189 45.4858 24.1932C45.1222 24.8598 44.6335 25.4015 44.0199 25.8182C43.4062 26.2348 42.7206 26.5341 41.9631 26.7159V26.9432C42.7888 26.9886 43.5805 27.2424 44.3381 27.7045C45.1032 28.1591 45.7282 28.803 46.2131 29.6364C46.6979 30.4697 46.9403 31.4773 46.9403 32.6591C46.9403 33.8636 46.6487 34.947 46.0653 35.9091C45.482 36.8636 44.6032 37.6174 43.429 38.1705C42.2547 38.7235 40.7775 39 38.9972 39H29.5767ZM33.7926 35.4773H38.3267C39.857 35.4773 40.9593 35.1856 41.6335 34.6023C42.3153 34.0114 42.6562 33.2538 42.6562 32.3295C42.6562 31.6402 42.4858 31.0189 42.1449 30.4659C41.804 29.9053 41.3191 29.4659 40.6903 29.1477C40.0616 28.822 39.3116 28.6591 38.4403 28.6591H33.7926V35.4773ZM33.7926 25.625H37.9631C38.6903 25.625 39.3456 25.4924 39.929 25.2273C40.5123 24.9545 40.9706 24.572 41.304 24.0795C41.6449 23.5795 41.8153 22.9886 41.8153 22.3068C41.8153 21.4053 41.4972 20.6629 40.8608 20.0795C40.232 19.4962 39.2964 19.2045 38.054 19.2045H33.7926V25.625Z" fill="black"/>
</svg>
